<svg xmlns="http://www.w3.org/2000/svg" width="14" height="14" viewBox="0 0 14 14">
  <g id="组_1" data-name="组 1" transform="translate(-16.5 -333.75)">
    <rect id="矩形_1" data-name="矩形 1" width="14" height="14" transform="translate(16.5 333.75)" fill="#fff"/>
    <g id="lianjie-2" transform="translate(17 336)">
      <path id="路径" d="M6.3.371A2.45,2.45,0,0,0,6.058.145h0A.469.469,0,0,0,5.721,0a.5.5,0,0,0-.487.519.539.539,0,0,0,.114.333h0a.5.5,0,0,0,.12.11c.046.04.091.08.133.125l.04.043a1.525,1.525,0,0,1-.151,2l-2.152,2.3a1.238,1.238,0,0,1-1.828,0l-.04-.043a1.448,1.448,0,0,1,0-1.951l.951-1.015a.578.578,0,0,0,.2-.442.547.547,0,0,0-.528-.564.5.5,0,0,0-.3.1v0l-.01.01a.547.547,0,0,0-.1.1L.7,2.608a2.682,2.682,0,0,0,0,3.606l.04.043a2.289,2.289,0,0,0,3.376,0l2.151-2.3A2.61,2.61,0,0,0,6.343.413Z" transform="translate(0 4)" fill="#1783ff"/>
      <path id="路径-2" data-name="路径" d="M6.3.695,6.262.657a2.505,2.505,0,0,0-3.383,0L.724,2.687A1.981,1.981,0,0,0,.673,5.706l.04.037c.042.04.086.077.131.113a.458.458,0,0,0,.113.086h0A.48.48,0,0,0,1.186,6a.447.447,0,0,0,.46-.433A.411.411,0,0,0,1.6,5.378h0A.966.966,0,0,0,1.347,5.1l-.04-.037A1.1,1.1,0,0,1,1.5,3.418l2.157-2.03a1.353,1.353,0,0,1,1.831,0l.04.037a1.171,1.171,0,0,1,0,1.725l-.949.895a.485.485,0,0,0-.213.4.511.511,0,0,0,.525.495.547.547,0,0,0,.275-.073l0,0,.015-.013a.517.517,0,0,0,.12-.1l1-.869A2.166,2.166,0,0,0,6.3.695Z" transform="translate(4)" fill="#1783ff"/>
    </g>
  </g>
</svg>
