<svg id="全屏-叉-icon" xmlns="http://www.w3.org/2000/svg" width="33.999" height="34" viewBox="0 0 33.999 34">
  <defs>
    <style>
      .cls-1 {
        fill: #fff;
      }
    </style>
  </defs>
  <path id="形状" class="cls-1" d="M0,17A17,17,0,1,1,17,34,17.019,17.019,0,0,1,0,17Zm2.439,0A14.561,14.561,0,1,0,17,2.44,14.577,14.577,0,0,0,2.439,17Zm19.806,7.039L16.983,18.76l-5.22,5.163A1.214,1.214,0,0,1,10.056,22.2l5.213-5.157L10.1,11.853a1.215,1.215,0,0,1,1.72-1.715l5.177,5.194,5.258-5.2a1.214,1.214,0,0,1,1.708,1.726L18.71,17.052l5.255,5.272a1.214,1.214,0,1,1-1.72,1.715Z"/>
</svg>
