<svg xmlns="http://www.w3.org/2000/svg" xmlns:xlink="http://www.w3.org/1999/xlink" width="60" height="160" viewBox="0 0 60 160"><defs><style>.a{clip-path:url(#b);}.b{fill:#fff;}.c,.f{fill:none;}.c{stroke:#fff;stroke-miterlimit:10;}.d{fill:#333;}.e{stroke:none;}</style><clipPath id="b"><rect width="60" height="160"/></clipPath></defs><g id="a" class="a"><g transform="translate(1 80)"><g transform="translate(7 7)"><path class="b" d="M.264,4.379,7.718,7.914a.527.527,0,0,0,.451,0L15.6,4.379a.431.431,0,0,0,0-.793L8.169.051a.527.527,0,0,0-.451,0L.264,3.586a.444.444,0,0,0-.264.4A.45.45,0,0,0,.264,4.379Z" transform="translate(0.56)"/><path class="b" d="M.312,1,7.675,4.491a.62.62,0,0,0,.266.06.628.628,0,0,0,.268-.06L15.554,1A.507.507,0,0,0,15.8.286.606.606,0,0,0,15.02.061L7.942,3.426.847.06A.608.608,0,0,0,.066.285.508.508,0,0,0,.312,1Z" transform="translate(0.56 7.396)"/><path class="b" d="M15.018.061,7.941,3.427.847.06A.607.607,0,0,0,.065.285.508.508,0,0,0,.312,1L7.675,4.491a.62.62,0,0,0,.266.06.628.628,0,0,0,.268-.06L15.554,1A.507.507,0,0,0,15.8.285a.61.61,0,0,0-.783-.223Z" transform="translate(0.56 11.378)"/></g><g class="c"><circle class="e" cx="15" cy="15" r="15"/><circle class="f" cx="15" cy="15" r="14.5"/></g></g><g transform="translate(1 40)"><g transform="translate(7 7)"><g transform="translate(0 4)"><path class="b" d="M2.6,11.743a.474.474,0,0,1,0-.948H13.583a.474.474,0,0,1,0,.948Zm10.6-1.707a.474.474,0,0,1,0-.949h1.325a.474.474,0,0,1,0,.949Zm-11.833,0a.474.474,0,0,1,0-.949h10.32a.474.474,0,1,1,0,.949Zm-.536-1.8A.836.836,0,0,1,.113,6.98L5.268.418a.83.83,0,0,1,1.441,0l.37.472.763.973,2.359,3,1.322-1.68a.538.538,0,0,1,.932,0l1.43,1.822.741.942,1.159,1.475a.54.54,0,0,1-.467.809Z" transform="translate(0.007 0.092)"/></g><circle class="b" cx="1.5" cy="1.5" r="1.5" transform="translate(13)"/></g><g class="c"><circle class="e" cx="15" cy="15" r="15"/><circle class="f" cx="15" cy="15" r="14.5"/></g></g><g transform="translate(1 120)"><g transform="translate(7 7)"><path class="b" d="M12.51,15.72,9.758,13.064l3.2-3.089,2.752,2.657a.938.938,0,0,1,0,1.355l-1.8,1.733a1.023,1.023,0,0,1-1.4,0Zm-8.4-3.915-1.346-.354,1.263-.57L4.3,9.347l.535,1.469,1.346.353-1.263.571-.266,1.536ZM6.422,9.844a.938.938,0,0,1,0-1.355l1.8-1.733a1.023,1.023,0,0,1,1.4,0l2.711,2.616-3.2,3.088ZM3.046,5.662,0,4.6,3.033,3.51,3.946,0,4.9,3.5,7.948,4.559,4.914,5.652,4,9.161Zm7.467-.555L8.222,4.787,10.184,3.6,10.3,1.015l1.19,2.318,2.292.32L11.821,4.84,11.7,7.426Z"/></g><g class="c"><circle class="e" cx="15" cy="15" r="15"/><circle class="f" cx="15" cy="15" r="14.5"/></g></g><g transform="translate(1 1)"><g transform="translate(6.774 6.161)"><g transform="translate(0.226 0.839)"><path class="b" d="M4.675,0A4.521,4.521,0,0,1,9.35,4.257,4.521,4.521,0,0,1,4.675,8.514,4.521,4.521,0,0,1,0,4.257,4.521,4.521,0,0,1,4.675,0Z" transform="translate(3.651 0)"/><path class="b" d="M0,5.074A9.209,9.209,0,0,1,8.366,0a9.209,9.209,0,0,1,8.366,5.074A12.835,12.835,0,0,1,8.366,8.245,13.415,13.415,0,0,1,0,5.074Z" transform="translate(0 9.528)"/></g></g><g class="c"><circle class="e" cx="15" cy="15" r="15"/><circle class="f" cx="15" cy="15" r="14.5"/></g></g><g transform="translate(40 1)"><path class="d" d="M2.75,0A2.7,2.7,0,0,1,5.5,2.6,2.7,2.7,0,0,1,2.75,5.2,2.7,2.7,0,0,1,0,2.6,2.7,2.7,0,0,1,2.75,0Z" transform="translate(2.147 0)"/><path class="d" d="M0,3.1A5.4,5.4,0,0,1,4.921,0,5.4,5.4,0,0,1,9.842,3.1,7.391,7.391,0,0,1,4.921,5.039,7.724,7.724,0,0,1,0,3.1Z" transform="translate(0 5.823)"/></g><g transform="translate(40 40)"><path class="d" d="M.171,2.822,4.994,5.1a.342.342,0,0,0,.292,0L10.1,2.822a.277.277,0,0,0,0-.511L5.286.033a.342.342,0,0,0-.292,0L.171,2.311A.286.286,0,0,0,0,2.567.29.29,0,0,0,.171,2.822Z" transform="translate(0.362)"/><path class="d" d="M.2.644l4.764,2.25a.4.4,0,0,0,.172.039.408.408,0,0,0,.174-.039L10.065.644a.326.326,0,0,0,.159-.46A.393.393,0,0,0,9.719.04L5.139,2.208.548.039A.394.394,0,0,0,.043.184.327.327,0,0,0,.2.644Z" transform="translate(0.362 4.767)"/><path class="d" d="M9.717.04,5.139,2.209.548.039A.394.394,0,0,0,.042.184.327.327,0,0,0,.2.643L4.966,2.895a.4.4,0,0,0,.172.039.407.407,0,0,0,.174-.039L10.065.643a.326.326,0,0,0,.159-.46A.4.4,0,0,0,9.717.04Z" transform="translate(0.362 7.333)"/></g><g transform="translate(40 20)"><g transform="translate(0 2.802)"><path class="d" d="M1.788,8.13a.328.328,0,0,1,0-.656h7.55a.328.328,0,0,1,0,.656ZM9.077,6.948a.329.329,0,0,1,0-.657h.911a.329.329,0,0,1,0,.657Zm-8.135,0a.329.329,0,0,1,0-.657h7.1a.329.329,0,0,1,0,.657ZM.574,5.7a.579.579,0,0,1-.5-.868L3.622.289a.569.569,0,0,1,.99,0l.255.327.525.674L7.013,3.368l.909-1.163a.369.369,0,0,1,.641,0l.983,1.261.509.652.8,1.022a.373.373,0,0,1-.321.56Z" transform="translate(0.005 0.064)"/></g><ellipse class="d" cx="1.079" cy="1.09" rx="1.079" ry="1.09" transform="translate(8.636 0)"/></g><g transform="translate(40 59.5)"><path class="d" d="M8.109,10.19,6.325,8.468l2.075-2,1.784,1.722a.609.609,0,0,1,0,.879L9.02,10.19a.662.662,0,0,1-.911,0ZM2.667,7.652l-.872-.229.818-.37.173-1,.346.953L4,7.239l-.818.37-.173,1Zm1.5-1.271a.608.608,0,0,1,0-.878L5.326,4.379a.664.664,0,0,1,.911,0l1.758,1.7-2.075,2ZM1.975,3.67,0,2.984l1.967-.709L2.558,0l.619,2.268,1.975.687-1.967.709-.59,2.274Zm4.841-.36L5.33,3.1,6.6,2.334,6.678.658l.771,1.5,1.486.208-1.273.769L7.587,4.813Z" transform="translate(0.318 0.5)"/></g></g></svg>